Exo2-BlackItalic.ufo
<glyph name="zero" format="1">
  <advance width="656"/>
  <unicode hex="0030"/>
  <outline>
    <contour>
      <point x="162" y="704"/>
      <point x="80" y="623"/>
      <point x="42" y="353" type="curve" smooth="yes"/>
      <point x="3" y="75"/>
      <point x="92" y="-14"/>
      <point x="296" y="-14" type="curve" smooth="yes"/>
      <point x="511" y="-14"/>
      <point x="589" y="67"/>
      <point x="627" y="337" type="curve" smooth="yes"/>
      <point x="666" y="615"/>
      <point x="588" y="704"/>
      <point x="373" y="704" type="curve" smooth="yes"/>
    </contour>
    <contour>
      <point x="429" y="543"/>
      <point x="436" y="523"/>
      <point x="414" y="343" type="curve" smooth="yes"/>
      <point x="393" y="167"/>
      <point x="379" y="147"/>
      <point x="307" y="147" type="curve" smooth="yes"/>
      <point x="238" y="147"/>
      <point x="232" y="167"/>
      <point x="255" y="347" type="curve" smooth="yes"/>
      <point x="278" y="523"/>
      <point x="292" y="543"/>
      <point x="363" y="543" type="curve" smooth="yes"/>
    </contour>
  </outline>
</glyph>
<glyph name="three" format="1">
  <advance width="571"/>
  <unicode hex="0033"/>
  <outline>
    <contour>
      <point x="261" y="704"/>
      <point x="175" y="699"/>
      <point x="91" y="686" type="curve"/>
      <point x="91" y="539" type="line"/>
      <point x="142" y="539"/>
      <point x="215" y="539"/>
      <point x="290" y="539" type="curve" smooth="yes"/>
      <point x="346" y="539"/>
      <point x="350" y="523"/>
      <point x="348" y="491" type="curve" smooth="yes"/>
      <point x="345" y="443"/>
      <point x="335" y="421"/>
      <point x="277" y="421" type="curve" smooth="yes"/>
      <point x="136" y="421" type="line"/>
      <point x="119" y="291" type="line"/>
      <point x="264" y="291" type="line" smooth="yes"/>
      <point x="314" y="291"/>
      <point x="325" y="276"/>
      <point x="316" y="230" type="curve" smooth="yes"/>
      <point x="309" y="190"/>
      <point x="285" y="152"/>
      <point x="191" y="152" type="curve" smooth="yes"/>
      <point x="135" y="152"/>
      <point x="99" y="151"/>
      <point x="8" y="157" type="curve"/>
      <point x="-6" y="6" type="line"/>
      <point x="67" y="-5"/>
      <point x="154" y="-14"/>
      <point x="223" y="-14" type="curve" smooth="yes"/>
      <point x="406" y="-14"/>
      <point x="509" y="45"/>
      <point x="527" y="204" type="curve" smooth="yes"/>
      <point x="537" y="292"/>
      <point x="511" y="351"/>
      <point x="413" y="364" type="curve"/>
      <point x="414" y="368" type="line"/>
      <point x="511" y="379"/>
      <point x="545" y="455"/>
      <point x="551" y="535" type="curve" smooth="yes"/>
      <point x="562" y="667"/>
      <point x="482" y="704"/>
      <point x="321" y="704" type="curve" smooth="yes"/>
    </contour>
  </outline>
</glyph>
<glyph name="five" format="1">
  <advance width="559"/>
  <unicode hex="0035"/>
  <outline>
    <contour>
      <point x="121" y="690" type="line"/>
      <point x="62" y="390" type="line" smooth="yes"/>
      <point x="54" y="350"/>
      <point x="80" y="316"/>
      <point x="122" y="310" type="curve" smooth="yes"/>
      <point x="234" y="293" type="line" smooth="yes"/>
      <point x="297" y="285"/>
      <point x="318" y="279"/>
      <point x="311" y="241" type="curve" smooth="yes"/>
      <point x="300" y="181"/>
      <point x="260" y="165"/>
      <point x="188" y="161" type="curve" smooth="yes"/>
      <point x="142" y="158"/>
      <point x="84" y="161"/>
      <point x="17" y="167" type="curve"/>
      <point x="-10" y="6" type="line"/>
      <point x="73" y="-5"/>
      <point x="152" y="-16"/>
      <point x="227" y="-12" type="curve" smooth="yes"/>
      <point x="431" y="-2"/>
      <point x="505" y="96"/>
      <point x="524" y="227" type="curve" smooth="yes"/>
      <point x="536" y="308"/>
      <point x="513" y="422"/>
      <point x="337" y="446" type="curve" smooth="yes"/>
      <point x="254" y="456" type="line"/>
      <point x="272" y="535" type="line"/>
      <point x="536" y="535" type="line"/>
      <point x="564" y="690" type="line"/>
    </contour>
  </outline>
</glyph>
<glyph name="six" format="1">
  <advance width="604"/>
  <unicode hex="0036"/>
  <outline>
    <contour>
      <point x="185" y="702"/>
      <point x="87" y="657"/>
      <point x="42" y="347" type="curve" smooth="yes"/>
      <point x="2" y="70"/>
      <point x="67" y="-12"/>
      <point x="279" y="-12" type="curve" smooth="yes"/>
      <point x="472" y="-12"/>
      <point x="546" y="59"/>
      <point x="572" y="238" type="curve" smooth="yes"/>
      <point x="594" y="389"/>
      <point x="548" y="456"/>
      <point x="386" y="456" type="curve" smooth="yes"/>
      <point x="320" y="456"/>
      <point x="230" y="428"/>
      <point x="160" y="308" type="curve"/>
      <point x="162" y="231" type="line"/>
      <point x="242" y="300"/>
      <point x="284" y="314"/>
      <point x="326" y="314" type="curve" smooth="yes"/>
      <point x="370" y="314"/>
      <point x="379" y="309"/>
      <point x="371" y="249" type="curve" smooth="yes"/>
      <point x="359" y="167"/>
      <point x="349" y="139"/>
      <point x="288" y="139" type="curve" smooth="yes"/>
      <point x="217" y="139"/>
      <point x="218" y="155"/>
      <point x="245" y="319" type="curve" smooth="yes"/>
      <point x="278" y="516"/>
      <point x="287" y="551"/>
      <point x="394" y="551" type="curve" smooth="yes"/>
      <point x="473" y="551"/>
      <point x="508" y="551"/>
      <point x="567" y="551" type="curve"/>
      <point x="581" y="679" type="line"/>
      <point x="503" y="698"/>
      <point x="427" y="702"/>
      <point x="381" y="702" type="curve" smooth="yes"/>
    </contour>
  </outline>
</glyph>
<glyph name="E" format="1">
  <advance width="587"/>
  <unicode hex="0045"/>
  <outline>
    <contour>
      <point x="157" y="694"/>
      <point x="95" y="634"/>
      <point x="82" y="541" type="curve" smooth="yes"/>
      <point x="32" y="184" type="line" smooth="yes"/>
      <point x="18" y="75"/>
      <point x="73" y="-4"/>
      <point x="187" y="-4" type="curve" smooth="yes"/>
      <point x="295" y="-4"/>
      <point x="429" y="-5"/>
      <point x="525" y="8" type="curve"/>
      <point x="529" y="162" type="line"/>
      <point x="289" y="162" type="line" smooth="yes"/>
      <point x="260" y="162"/>
      <point x="248" y="175"/>
      <point x="252" y="201" type="curve" smooth="yes"/>
      <point x="292" y="488" type="line" smooth="yes"/>
      <point x="296" y="518"/>
      <point x="309" y="528"/>
      <point x="343" y="528" type="curve" smooth="yes"/>
      <point x="583" y="528" type="line"/>
      <point x="607" y="680" type="line"/>
      <point x="514" y="693"/>
      <point x="380" y="694"/>
      <point x="259" y="694" type="curve" smooth="yes"/>
    </contour>
    <contour>
      <point x="62" y="281" type="line"/>
      <point x="514" y="281" type="line"/>
      <point x="532" y="425" type="line"/>
      <point x="85" y="425" type="line"/>
    </contour>
    <contour>
      <point x="271" y="0" type="move" name="bottom"/>
    </contour>
    <contour>
      <point x="525" y="8" type="move" name="ogonek"/>
    </contour>
    <contour>
      <point x="380" y="735" type="move" name="top"/>
    </contour>
  </outline>
</glyph>
<glyph name="H" format="1">
  <advance width="705"/>
  <unicode hex="0048"/>
  <outline>
    <contour>
      <point x="109" y="690" type="line"/>
      <point x="12" y="0" type="line"/>
      <point x="229" y="0" type="line"/>
      <point x="326" y="690" type="line"/>
    </contour>
    <contour>
      <point x="283" y="443" type="line"/>
      <point x="262" y="289" type="line"/>
      <point x="445" y="289" type="line"/>
      <point x="467" y="443" type="line"/>
    </contour>
    <contour>
      <point x="491" y="690" type="line"/>
      <point x="394" y="0" type="line"/>
      <point x="611" y="0" type="line"/>
      <point x="708" y="690" type="line"/>
    </contour>
  </outline>
</glyph>
<glyph name="I" format="1">
  <advance width="322"/>
  <unicode hex="0049"/>
  <outline>
    <contour>
      <point x="109" y="690" type="line"/>
      <point x="12" y="0" type="line"/>
      <point x="228" y="0" type="line"/>
      <point x="325" y="690" type="line"/>
    </contour>
    <contour>
      <point x="199" y="0" type="move" name="ogonek"/>
    </contour>
    <contour>
      <point x="225" y="735" type="move" name="top"/>
    </contour>
  </outline>
</glyph>
<glyph name="R" format="1">
  <advance width="669"/>
  <unicode hex="0052"/>
  <outline>
    <contour>
      <point x="260" y="700"/>
      <point x="198" y="699"/>
      <point x="108" y="690" type="curve"/>
      <point x="110" y="541" type="line"/>
      <point x="143" y="545"/>
      <point x="242" y="547"/>
      <point x="385" y="547" type="curve" smooth="yes"/>
      <point x="434" y="547"/>
      <point x="447" y="532"/>
      <point x="440" y="484" type="curve" smooth="yes"/>
      <point x="430" y="419"/>
      <point x="414" y="405"/>
      <point x="355" y="405" type="curve" smooth="yes"/>
      <point x="81" y="405" type="line"/>
      <point x="65" y="257" type="line"/>
      <point x="127" y="253"/>
      <point x="180" y="253"/>
      <point x="334" y="252" type="curve" smooth="yes"/>
      <point x="364" y="252"/>
      <point x="373" y="247"/>
      <point x="374" y="209" type="curve" smooth="yes"/>
      <point x="392" y="0" type="line"/>
      <point x="616" y="0" type="line"/>
      <point x="590" y="208" type="line" smooth="yes"/>
      <point x="582" y="292"/>
      <point x="533" y="314"/>
      <point x="499" y="319" type="curve"/>
      <point x="500" y="326" type="line"/>
      <point x="612" y="337"/>
      <point x="645" y="403"/>
      <point x="656" y="482" type="curve" smooth="yes"/>
      <point x="678" y="647"/>
      <point x="579" y="700"/>
      <point x="387" y="700" type="curve" smooth="yes"/>
    </contour>
    <contour>
      <point x="108" y="690" type="line"/>
      <point x="11" y="0" type="line"/>
      <point x="223" y="0" type="line"/>
      <point x="320" y="690" type="line"/>
    </contour>
    <contour>
      <point x="391" y="735" type="move" name="top"/>
    </contour>
  </outline>
</glyph>
<glyph name="T" format="1">
  <advance width="618"/>
  <unicode hex="0054"/>
  <outline>
    <contour>
      <point x="256" y="690" type="line"/>
      <point x="159" y="0" type="line"/>
      <point x="376" y="0" type="line"/>
      <point x="473" y="690" type="line"/>
    </contour>
    <contour>
      <point x="66" y="690" type="line"/>
      <point x="43" y="528" type="line"/>
      <point x="641" y="528" type="line"/>
      <point x="664" y="690" type="line"/>
    </contour>
    <contour>
      <point x="263" y="-10" type="move" name="bottom"/>
    </contour>
    <contour>
      <point x="368" y="735" type="move" name="top"/>
    </contour>
  </outline>
</glyph>
<glyph name="U" format="1">
  <advance width="700"/>
  <unicode hex="0055"/>
  <outline>
    <contour>
      <point x="493" y="690" type="line"/>
      <point x="436" y="289" type="line" smooth="yes"/>
      <point x="418" y="178"/>
      <point x="403" y="147"/>
      <point x="327" y="147" type="curve" smooth="yes"/>
      <point x="254" y="147"/>
      <point x="245" y="176"/>
      <point x="261" y="281" type="curve" smooth="yes"/>
      <point x="319" y="690" type="line"/>
      <point x="103" y="690" type="line"/>
      <point x="45" y="289" type="line" smooth="yes"/>
      <point x="16" y="69"/>
      <point x="112" y="-14"/>
      <point x="322" y="-14" type="curve" smooth="yes"/>
      <point x="542" y="-14"/>
      <point x="620" y="61"/>
      <point x="651" y="281" type="curve" smooth="yes"/>
      <point x="710" y="690" type="line"/>
    </contour>
    <contour>
      <point x="354" y="-9" type="move" name="ogonek"/>
    </contour>
    <contour>
      <point x="411" y="735" type="move" name="top"/>
    </contour>
  </outline>
</glyph>
<glyph name="Y" format="1">
  <advance width="649"/>
  <unicode hex="0059"/>
  <outline>
    <contour>
      <point x="484" y="690" type="line"/>
      <point x="367" y="467" type="line" smooth="yes"/>
      <point x="351" y="434"/>
      <point x="340" y="396"/>
      <point x="337" y="368" type="curve"/>
      <point x="322" y="368" type="line"/>
      <point x="323" y="399"/>
      <point x="324" y="429"/>
      <point x="315" y="469" type="curve" smooth="yes"/>
      <point x="262" y="690" type="line"/>
      <point x="46" y="690" type="line"/>
      <point x="209" y="206" type="line"/>
      <point x="417" y="205" type="line"/>
      <point x="715" y="690" type="line"/>
    </contour>
    <contour>
      <point x="219" y="328" type="line"/>
      <point x="173" y="0" type="line"/>
      <point x="391" y="0" type="line"/>
      <point x="436" y="328" type="line"/>
    </contour>
    <contour>
      <point x="382" y="735" type="move" name="top"/>
    </contour>
  </outline>
</glyph>
<glyph name="underscore" format="1">
  <advance width="533"/>
  <unicode hex="005F"/>
  <outline>
    <contour>
      <point x="0" y="0" type="line"/>
      <point x="-17" y="-122" type="line"/>
      <point x="434" y="-122" type="line"/>
      <point x="451" y="0" type="line"/>
    </contour>
  </outline>
</glyph>
<glyph name="grave" format="1">
  <advance width="392"/>
  <unicode hex="0060"/>
  <outline>
    <contour>
      <point x="87" y="617" type="line"/>
      <point x="335" y="511" type="line"/>
      <point x="402" y="597" type="line"/>
      <point x="167" y="747" type="line"/>
    </contour>
    <contour>
      <point x="291" y="526" type="move" name="_top"/>
    </contour>
  </outline>
</glyph>
<glyph name="q" format="1">
  <advance width="616"/>
  <unicode hex="0071"/>
  <outline>
    <contour>
      <point x="87" y="514"/>
      <point x="44" y="405"/>
      <point x="22" y="254" type="curve" smooth="yes"/>
      <point x="-5" y="67"/>
      <point x="49" y="-12"/>
      <point x="182" y="-12" type="curve" smooth="yes"/>
      <point x="251" y="-12"/>
      <point x="348" y="43"/>
      <point x="407" y="129" type="curve"/>
      <point x="368" y="210" type="line"/>
      <point x="337" y="193"/>
      <point x="306" y="162"/>
      <point x="266" y="162" type="curve" smooth="yes"/>
      <point x="225" y="162"/>
      <point x="226" y="191"/>
      <point x="236" y="259" type="curve" smooth="yes"/>
      <point x="250" y="352"/>
      <point x="273" y="369"/>
      <point x="324" y="373" type="curve" smooth="yes"/>
      <point x="345" y="374"/>
      <point x="406" y="370"/>
      <point x="425" y="361" type="curve"/>
      <point x="599" y="472" type="line"/>
      <point x="542" y="501"/>
      <point x="393" y="514"/>
      <point x="312" y="514" type="curve" smooth="yes"/>
    </contour>
    <contour>
      <point x="334" y="106" type="line"/>
      <point x="352" y="98" type="line"/>
      <point x="329" y="46"/>
      <point x="317" y="-18"/>
      <point x="310" y="-75" type="curve" smooth="yes"/>
      <point x="296" y="-180" type="line"/>
      <point x="506" y="-180" type="line"/>
      <point x="599" y="472" type="line"/>
      <point x="389" y="482" type="line"/>
    </contour>
  </outline>
</glyph>
<glyph name="r" format="1">
  <advance width="452"/>
  <unicode hex="0072"/>
  <outline>
    <contour>
      <point x="73" y="500" type="line"/>
      <point x="3" y="0" type="line"/>
      <point x="214" y="0" type="line"/>
      <point x="266" y="386" type="line"/>
      <point x="247" y="398" type="line"/>
      <point x="237" y="500" type="line"/>
    </contour>
    <contour>
      <point x="443" y="514" type="line"/>
      <point x="379" y="514"/>
      <point x="307" y="487"/>
      <point x="234" y="424" type="curve"/>
      <point x="242" y="307" type="line"/>
      <point x="314" y="319"/>
      <point x="353" y="322"/>
      <point x="389" y="322" type="curve" smooth="yes"/>
      <point x="436" y="322" type="line"/>
      <point x="479" y="514" type="line"/>
    </contour>
    <contour>
      <point x="285" y="547" type="move" name="top"/>
    </contour>
  </outline>
</glyph>
<glyph name="z" format="1">
  <advance width="538"/>
  <unicode hex="007A"/>
  <outline>
    <contour>
      <point x="6" y="135" type="line"/>
      <point x="257" y="134" type="line"/>
      <point x="515" y="365" type="line"/>
      <point x="265" y="366" type="line"/>
    </contour>
    <contour>
      <point x="7" y="135" type="line"/>
      <point x="-10" y="0" type="line"/>
      <point x="468" y="0" type="line"/>
      <point x="486" y="135" type="line"/>
    </contour>
    <contour>
      <point x="65" y="500" type="line"/>
      <point x="47" y="365" type="line"/>
      <point x="514" y="365" type="line"/>
      <point x="531" y="500" type="line"/>
    </contour>
    <contour>
      <point x="309" y="547" type="move" name="top"/>
    </contour>
  </outline>
</glyph>
<glyph name="macron" format="1">
  <advance width="400"/>
  <unicode hex="00AF"/>
  <outline>
    <contour>
      <point x="105" y="713" type="line"/>
      <point x="88" y="590" type="line"/>
      <point x="408" y="590" type="line"/>
      <point x="425" y="713" type="line"/>
    </contour>
    <contour>
      <point x="246" y="553" type="move" name="_top"/>
    </contour>
  </outline>
</glyph>
<glyph name="twosuperior" format="1">
  <advance width="431"/>
  <unicode hex="00B2"/>
  <outline>
    <contour>
      <point x="235" y="781"/>
      <point x="171" y="781"/>
      <point x="103" y="770" type="curve"/>
      <point x="104" y="658" type="line"/>
      <point x="168" y="656"/>
      <point x="195" y="656"/>
      <point x="250" y="656" type="curve" smooth="yes"/>
      <point x="266" y="656"/>
      <point x="274" y="646"/>
      <point x="262" y="635" type="curve" smooth="yes"/>
      <point x="248" y="622"/>
      <point x="217" y="601"/>
      <point x="170" y="569" type="curve" smooth="yes"/>
      <point x="83" y="506" type="line" smooth="yes"/>
      <point x="65" y="489"/>
      <point x="63" y="469"/>
      <point x="59" y="443" type="curve" smooth="yes"/>
      <point x="47" y="360" type="line"/>
      <point x="405" y="360" type="line"/>
      <point x="423" y="491" type="line"/>
      <point x="310" y="494" type="line" smooth="yes"/>
      <point x="290" y="495"/>
      <point x="273" y="493"/>
      <point x="253" y="487" type="curve"/>
      <point x="365" y="563" type="line" smooth="yes"/>
      <point x="416" y="597"/>
      <point x="433" y="626"/>
      <point x="438" y="655" type="curve" smooth="yes"/>
      <point x="456" y="765"/>
      <point x="368" y="781"/>
      <point x="259" y="781" type="curve" smooth="yes"/>
    </contour>
  </outline>
</glyph>
<glyph name="threesuperior" format="1">
  <advance width="407"/>
  <unicode hex="00B3"/>
  <outline>
    <contour>
      <point x="218" y="783"/>
      <point x="159" y="780"/>
      <point x="103" y="772" type="curve"/>
      <point x="105" y="662" type="line"/>
      <point x="168" y="660"/>
      <point x="213" y="660"/>
      <point x="240" y="660" type="curve" smooth="yes"/>
      <point x="262" y="660"/>
      <point x="265" y="654"/>
      <point x="265" y="646" type="curve" smooth="yes"/>
      <point x="265" y="625"/>
      <point x="257" y="619"/>
      <point x="237" y="619" type="curve" smooth="yes"/>
      <point x="137" y="619" type="line"/>
      <point x="124" y="525" type="line"/>
      <point x="226" y="525" type="line" smooth="yes"/>
      <point x="245" y="525"/>
      <point x="250" y="521"/>
      <point x="248" y="506" type="curve" smooth="yes"/>
      <point x="246" y="491"/>
      <point x="235" y="475"/>
      <point x="193" y="475" type="curve" smooth="yes"/>
      <point x="155" y="475"/>
      <point x="128" y="474"/>
      <point x="55" y="476" type="curve"/>
      <point x="47" y="364" type="line"/>
      <point x="101" y="357"/>
      <point x="166" y="351"/>
      <point x="215" y="351" type="curve" smooth="yes"/>
      <point x="356" y="351"/>
      <point x="397" y="400"/>
      <point x="406" y="467" type="curve" smooth="yes"/>
      <point x="414" y="525"/>
      <point x="394" y="570"/>
      <point x="325" y="578" type="curve"/>
      <point x="326" y="581" type="line"/>
      <point x="396" y="588"/>
      <point x="415" y="637"/>
      <point x="420" y="678" type="curve" smooth="yes"/>
      <point x="429" y="755"/>
      <point x="390" y="783"/>
      <point x="260" y="783" type="curve" smooth="yes"/>
    </contour>
  </outline>
</glyph>
<glyph name="acute" format="1">
  <advance width="392"/>
  <unicode hex="00B4"/>
  <outline>
    <contour>
      <point x="90" y="597" type="line"/>
      <point x="137" y="511" type="line"/>
      <point x="403" y="607" type="line"/>
      <point x="337" y="753" type="line"/>
    </contour>
    <contour>
      <point x="181" y="526" type="move" name="_top"/>
    </contour>
  </outline>
</glyph>
<glyph name="cedilla" format="1">
  <advance width="263"/>
  <unicode hex="00B8"/>
  <outline>
    <contour>
      <point x="8" y="-105" type="line"/>
      <point x="68" y="-105"/>
      <point x="73" y="-108"/>
      <point x="70" y="-121" type="curve" smooth="yes"/>
      <point x="61" y="-162"/>
      <point x="15" y="-167"/>
      <point x="-29" y="-167" type="curve"/>
      <point x="-50" y="-244" type="line"/>
      <point x="73" y="-261"/>
      <point x="179" y="-217"/>
      <point x="198" y="-106" type="curve" smooth="yes"/>
      <point x="212" y="-22"/>
      <point x="133" y="-19"/>
      <point x="26" y="-33" type="curve"/>
    </contour>
    <contour>
      <point x="105" y="0" type="move" name="_bottom"/>
    </contour>
  </outline>
</glyph>
<glyph name="onesuperior" format="1">
  <advance width="321"/>
  <unicode hex="00B9"/>
  <outline>
    <contour>
      <point x="182" y="774" type="line"/>
      <point x="67" y="735" type="line"/>
      <point x="73" y="637" type="line"/>
      <point x="172" y="655" type="line"/>
      <point x="164" y="634"/>
      <point x="161" y="615"/>
      <point x="158" y="595" type="curve" smooth="yes"/>
      <point x="124" y="360" type="line"/>
      <point x="283" y="360" type="line"/>
      <point x="342" y="774" type="line"/>
    </contour>
  </outline>
</glyph>
<glyph name="Eth" format="1">
  <advance width="700"/>
  <unicode hex="00D0"/>
  <outline>
    <contour>
      <point x="22" y="413" type="line"/>
      <point x="8" y="313" type="line"/>
      <point x="359" y="313" type="line"/>
      <point x="373" y="413" type="line"/>
    </contour>
    <component base="D"/>
  </outline>
</glyph>
<glyph name="multiply" format="1">
  <advance width="526"/>
  <unicode hex="00D7"/>
  <outline>
    <contour>
      <point x="10" y="190" type="line"/>
      <point x="87" y="65" type="line"/>
      <point x="513" y="400" type="line"/>
      <point x="436" y="524" type="line"/>
    </contour>
    <contour>
      <point x="42" y="399" type="line"/>
      <point x="377" y="63" type="line"/>
      <point x="488" y="188" type="line"/>
      <point x="152" y="514" type="line"/>
    </contour>
  </outline>
</glyph>
<glyph name="Oslash" format="1">
  <advance width="700"/>
  <unicode hex="00D8"/>
  <outline>
    <contour>
      <point x="133" y="132" type="line"/>
      <point x="31" y="-34" type="line"/>
      <point x="181" y="-111" type="line"/>
      <point x="283" y="56" type="line"/>
    </contour>
    <contour>
      <point x="605" y="591" type="line"/>
      <point x="691" y="735" type="line"/>
      <point x="541" y="811" type="line"/>
      <point x="455" y="667" type="line"/>
    </contour>
    <component base="O"/>
  </outline>
</glyph>
<glyph name="ae" format="1">
  <advance width="917"/>
  <unicode hex="00E6"/>
  <outline>
    <contour>
      <point x="152" y="513"/>
      <point x="60" y="500"/>
      <point x="26" y="264" type="curve" smooth="yes"/>
      <point x="1" y="90"/>
      <point x="27" y="-22"/>
      <point x="170" y="-12" type="curve" smooth="yes"/>
      <point x="297" y="-3"/>
      <point x="380" y="75"/>
      <point x="411" y="221" type="curve"/>
      <point x="377" y="277" type="line"/>
      <point x="354" y="213"/>
      <point x="296" y="152"/>
      <point x="261" y="149" type="curve" smooth="yes"/>
      <point x="223" y="146"/>
      <point x="225" y="168"/>
      <point x="240" y="270" type="curve" smooth="yes"/>
      <point x="254" y="366"/>
      <point x="278" y="377"/>
      <point x="327" y="377" type="curve" smooth="yes"/>
      <point x="374" y="377"/>
      <point x="398" y="377"/>
      <point x="431" y="376" type="curve"/>
      <point x="595" y="482" type="line"/>
      <point x="551" y="497"/>
      <point x="437" y="515"/>
      <point x="306" y="514" type="curve" smooth="yes"/>
    </contour>
    <contour>
      <point x="482" y="514"/>
      <point x="377" y="468"/>
      <point x="355" y="254" type="curve" smooth="yes"/>
      <point x="338" y="83"/>
      <point x="394" y="-12"/>
      <point x="619" y="-12" type="curve" smooth="yes"/>
      <point x="698" y="-12"/>
      <point x="782" y="-1"/>
      <point x="852" y="32" type="curve"/>
      <point x="839" y="160" type="line"/>
      <point x="779" y="153"/>
      <point x="676" y="149"/>
      <point x="638" y="149" type="curve" smooth="yes"/>
      <point x="563" y="149"/>
      <point x="553" y="162"/>
      <point x="569" y="261" type="curve" smooth="yes"/>
      <point x="585" y="357"/>
      <point x="596" y="378"/>
      <point x="658" y="379" type="curve" smooth="yes"/>
      <point x="696" y="380"/>
      <point x="703" y="371"/>
      <point x="701" y="349" type="curve" smooth="yes"/>
      <point x="698" y="311"/>
      <point x="675" y="307"/>
      <point x="635" y="303" type="curve" smooth="yes"/>
      <point x="443" y="283" type="line"/>
      <point x="430" y="184" type="line"/>
      <point x="691" y="204" type="line" smooth="yes"/>
      <point x="823" y="214"/>
      <point x="888" y="238"/>
      <point x="901" y="328" type="curve" smooth="yes"/>
      <point x="919" y="449"/>
      <point x="860" y="514"/>
      <point x="656" y="514" type="curve" smooth="yes"/>
    </contour>
  </outline>
</glyph>
<glyph name="oslash" format="1">
  <advance width="616"/>
  <unicode hex="00F8"/>
  <outline>
    <contour>
      <point x="134" y="102" type="line"/>
      <point x="49" y="-35" type="line"/>
      <point x="179" y="-106" type="line"/>
      <point x="263" y="29" type="line"/>
    </contour>
    <contour>
      <point x="495" y="411" type="line"/>
      <point x="575" y="539" type="line"/>
      <point x="445" y="611" type="line"/>
      <point x="366" y="484" type="line"/>
    </contour>
    <component base="o"/>
  </outline>
</glyph>
<glyph name="dotlessi" format="1">
  <advance width="306"/>
  <unicode hex="0131"/>
  <outline>
    <contour>
      <point x="77" y="500" type="line"/>
      <point x="7" y="0" type="line"/>
      <point x="218" y="0" type="line"/>
      <point x="288" y="500" type="line"/>
    </contour>
    <contour>
      <point x="198" y="0" type="move" name="ogonek"/>
    </contour>
    <contour>
      <point x="183" y="547" type="move" name="top"/>
    </contour>
  </outline>
</glyph>
<glyph name="Tbar" format="1">
  <advance width="618"/>
  <unicode hex="0166"/>
  <outline>
    <contour>
      <point x="103" y="401" type="line"/>
      <point x="90" y="307" type="line"/>
      <point x="540" y="307" type="line"/>
      <point x="553" y="401" type="line"/>
    </contour>
    <component base="T"/>
  </outline>
</glyph>
<glyph name="tbar" format="1">
  <advance width="439"/>
  <unicode hex="0167"/>
  <outline>
    <contour>
      <point x="44" y="324" type="line"/>
      <point x="31" y="230" type="line"/>
      <point x="374" y="230" type="line"/>
      <point x="387" y="324" type="line"/>
    </contour>
    <component base="t"/>
  </outline>
</glyph>
<glyph name="circumflex" format="1">
  <advance width="477"/>
  <unicode hex="02C6"/>
  <outline>
    <contour>
      <point x="222" y="742" type="line"/>
      <point x="72" y="606" type="line"/>
      <point x="120" y="534" type="line"/>
      <point x="284" y="628" type="line"/>
      <point x="292" y="628" type="line"/>
      <point x="439" y="534" type="line"/>
      <point x="494" y="602" type="line"/>
      <point x="363" y="742" type="line"/>
    </contour>
    <contour>
      <point x="282" y="550" type="move" name="_top"/>
    </contour>
  </outline>
</glyph>
<glyph name="ring" format="1">
  <advance width="318"/>
  <unicode hex="02DA"/>
  <outline>
    <contour>
      <point x="145" y="776"/>
      <point x="96" y="724"/>
      <point x="88" y="663" type="curve" smooth="yes"/>
      <point x="78" y="592"/>
      <point x="134" y="534"/>
      <point x="210" y="534" type="curve" smooth="yes"/>
      <point x="287" y="534"/>
      <point x="336" y="586"/>
      <point x="344" y="647" type="curve" smooth="yes"/>
      <point x="354" y="719"/>
      <point x="294" y="776"/>
      <point x="221" y="776" type="curve" smooth="yes"/>
    </contour>
    <contour>
      <point x="244" y="701"/>
      <point x="262" y="684"/>
      <point x="261" y="658" type="curve" smooth="yes"/>
      <point x="260" y="629"/>
      <point x="240" y="609"/>
      <point x="212" y="609" type="curve" smooth="yes"/>
      <point x="184" y="609"/>
      <point x="168" y="629"/>
      <point x="171" y="658" type="curve" smooth="yes"/>
      <point x="174" y="683"/>
      <point x="193" y="701"/>
      <point x="218" y="701" type="curve" smooth="yes"/>
    </contour>
    <contour>
      <point x="201" y="552" type="move" name="_top"/>
    </contour>
  </outline>
</glyph>
<glyph name="hungarumlaut" format="1">
  <advance width="547"/>
  <unicode hex="02DD"/>
  <outline>
    <contour>
      <point x="84" y="563" type="line"/>
      <point x="169" y="511" type="line"/>
      <point x="352" y="672" type="line"/>
      <point x="231" y="756" type="line"/>
    </contour>
    <contour>
      <point x="299" y="562" type="line"/>
      <point x="383" y="511" type="line"/>
      <point x="567" y="672" type="line"/>
      <point x="446" y="756" type="line"/>
    </contour>
    <contour>
      <point x="281" y="523" type="move" name="_top"/>
    </contour>
  </outline>
</glyph>
<glyph name="uni0406" format="1">
  <advance width="329"/>
  <unicode hex="0406"/>
  <outline>
    <contour>
      <point x="113" y="690" type="line"/>
      <point x="16" y="0" type="line"/>
      <point x="231" y="0" type="line"/>
      <point x="328" y="690" type="line"/>
    </contour>
    <contour>
      <point x="223" y="735" type="move" name="top"/>
    </contour>
  </outline>
</glyph>
<glyph name="uni041A" format="1">
  <advance width="676"/>
  <unicode hex="041A"/>
  <outline>
    <contour>
      <point x="483" y="690" type="line"/>
      <point x="407" y="471"/>
      <point x="391" y="428"/>
      <point x="306" y="428" type="curve"/>
      <point x="293" y="288" type="line"/>
      <point x="380" y="288"/>
      <point x="372" y="264"/>
      <point x="405" y="0" type="curve"/>
      <point x="627" y="0" type="line"/>
      <point x="584" y="301"/>
      <point x="584" y="333"/>
      <point x="448" y="355" type="curve"/>
      <point x="449" y="361" type="line"/>
      <point x="599" y="381"/>
      <point x="601" y="423"/>
      <point x="708" y="690" type="curve"/>
    </contour>
    <contour>
      <point x="113" y="690" type="line"/>
      <point x="16" y="0" type="line"/>
      <point x="233" y="0" type="line"/>
      <point x="264" y="221" type="line" smooth="yes"/>
      <point x="270" y="261"/>
      <point x="263" y="315"/>
      <point x="252" y="354" type="curve"/>
      <point x="279" y="393"/>
      <point x="297" y="459"/>
      <point x="304" y="512" type="curve" smooth="yes"/>
      <point x="330" y="690" type="line"/>
    </contour>
    <contour>
      <point x="240" y="428" type="line"/>
      <point x="221" y="288" type="line"/>
      <point x="336" y="288" type="line"/>
      <point x="355" y="428" type="line"/>
    </contour>
    <contour>
      <point x="407" y="735" type="move" name="top"/>
    </contour>
  </outline>
</glyph>
<glyph name="uni041D" format="1">
  <advance width="713"/>
  <unicode hex="041D"/>
  <outline>
    <contour>
      <point x="113" y="690" type="line"/>
      <point x="16" y="0" type="line"/>
      <point x="233" y="0" type="line"/>
      <point x="330" y="690" type="line"/>
    </contour>
    <contour>
      <point x="287" y="443" type="line"/>
      <point x="266" y="289" type="line"/>
      <point x="449" y="289" type="line"/>
      <point x="471" y="443" type="line"/>
    </contour>
    <contour>
      <point x="495" y="690" type="line"/>
      <point x="398" y="0" type="line"/>
      <point x="615" y="0" type="line"/>
      <point x="712" y="690" type="line"/>
    </contour>
  </outline>
</glyph>
<glyph name="uni0422" format="1">
  <advance width="618"/>
  <unicode hex="0422"/>
  <outline>
    <contour>
      <point x="256" y="690" type="line"/>
      <point x="159" y="0" type="line"/>
      <point x="376" y="0" type="line"/>
      <point x="473" y="690" type="line"/>
    </contour>
    <contour>
      <point x="66" y="690" type="line"/>
      <point x="43" y="528" type="line"/>
      <point x="641" y="528" type="line"/>
      <point x="664" y="690" type="line"/>
    </contour>
  </outline>
</glyph>
<glyph name="uni0426" format="1">
  <advance width="753"/>
  <unicode hex="0426"/>
  <outline>
    <contour>
      <point x="113" y="690" type="line"/>
      <point x="16" y="0" type="line"/>
      <point x="234" y="0" type="line"/>
      <point x="331" y="690" type="line"/>
    </contour>
    <contour>
      <point x="245" y="142" type="line"/>
      <point x="226" y="0" type="line"/>
      <point x="700" y="0" type="line"/>
      <point x="720" y="142" type="line"/>
    </contour>
    <contour>
      <point x="485" y="690" type="line"/>
      <point x="388" y="0" type="line"/>
      <point x="605" y="0" type="line"/>
      <point x="702" y="690" type="line"/>
    </contour>
    <contour>
      <point x="522" y="-151" type="line"/>
      <point x="679" y="-151" type="line"/>
      <point x="700" y="0" type="line"/>
      <point x="528" y="7" type="line"/>
    </contour>
  </outline>
</glyph>
<glyph name="uni0427" format="1">
  <advance width="690"/>
  <unicode hex="0427"/>
  <outline>
    <contour>
      <point x="90" y="690" type="line"/>
      <point x="49" y="400" type="line" smooth="yes"/>
      <point x="33" y="276"/>
      <point x="90" y="216"/>
      <point x="231" y="216" type="curve" smooth="yes"/>
      <point x="286" y="216"/>
      <point x="389" y="242"/>
      <point x="456" y="279" type="curve"/>
      <point x="440" y="412" type="line"/>
      <point x="387" y="392"/>
      <point x="354" y="392"/>
      <point x="320" y="392" type="curve" smooth="yes"/>
      <point x="286" y="392"/>
      <point x="266" y="398"/>
      <point x="272" y="439" type="curve" smooth="yes"/>
      <point x="308" y="690" type="line"/>
    </contour>
    <contour>
      <point x="472" y="690" type="line"/>
      <point x="375" y="0" type="line"/>
      <point x="592" y="0" type="line"/>
      <point x="689" y="690" type="line"/>
    </contour>
  </outline>
</glyph>
<glyph name="uni0428" format="1">
  <advance width="1015"/>
  <unicode hex="0428"/>
  <outline>
    <contour>
      <point x="113" y="690" type="line"/>
      <point x="16" y="0" type="line"/>
      <point x="227" y="0" type="line"/>
      <point x="324" y="690" type="line"/>
    </contour>
    <contour>
      <point x="238" y="142" type="line"/>
      <point x="219" y="0" type="line"/>
      <point x="753" y="0" type="line"/>
      <point x="772" y="142" type="line"/>
    </contour>
    <contour>
      <point x="458" y="690" type="line"/>
      <point x="361" y="0" type="line"/>
      <point x="572" y="0" type="line"/>
      <point x="669" y="690" type="line"/>
    </contour>
    <contour>
      <point x="803" y="690" type="line"/>
      <point x="706" y="0" type="line"/>
      <point x="917" y="0" type="line"/>
      <point x="1014" y="690" type="line"/>
    </contour>
  </outline>
</glyph>
<glyph name="uni0438" format="1">
  <advance width="618"/>
  <unicode hex="0438"/>
  <outline>
    <contour>
      <point x="71" y="500" type="line"/>
      <point x="20" y="130" type="line" smooth="yes"/>
      <point x="7" y="38"/>
      <point x="55" y="-14"/>
      <point x="159" y="-14" type="curve" smooth="yes"/>
      <point x="239" y="-14"/>
      <point x="315" y="28"/>
      <point x="403" y="126" type="curve"/>
      <point x="367" y="212" type="line"/>
      <point x="318" y="174"/>
      <point x="292" y="162"/>
      <point x="260" y="162" type="curve" smooth="yes"/>
      <point x="245" y="162"/>
      <point x="234" y="167"/>
      <point x="237" y="189" type="curve" smooth="yes"/>
      <point x="282" y="500" type="line"/>
    </contour>
    <contour>
      <point x="392" y="500" type="line"/>
      <point x="342" y="146" type="line"/>
      <point x="361" y="134" type="line"/>
      <point x="367" y="0" type="line"/>
      <point x="531" y="0" type="line"/>
      <point x="600" y="500" type="line"/>
    </contour>
    <contour>
      <point x="323" y="547" type="move" name="top"/>
    </contour>
  </outline>
</glyph>
<glyph name="uni0446" format="1">
  <advance width="663"/>
  <unicode hex="0446"/>
  <outline>
    <contour>
      <point x="72" y="500" type="line"/>
      <point x="20" y="130" type="line" smooth="yes"/>
      <point x="7" y="38"/>
      <point x="56" y="-14"/>
      <point x="159" y="-14" type="curve" smooth="yes"/>
      <point x="239" y="-14"/>
      <point x="315" y="28"/>
      <point x="403" y="126" type="curve"/>
      <point x="367" y="212" type="line"/>
      <point x="319" y="174"/>
      <point x="292" y="162"/>
      <point x="261" y="162" type="curve" smooth="yes"/>
      <point x="245" y="162"/>
      <point x="235" y="167"/>
      <point x="238" y="189" type="curve" smooth="yes"/>
      <point x="283" y="500" type="line"/>
    </contour>
    <contour>
      <point x="417" y="-149" type="line"/>
      <point x="589" y="-149" type="line"/>
      <point x="611" y="0" type="line"/>
      <point x="468" y="5" type="line"/>
    </contour>
    <contour>
      <point x="392" y="500" type="line"/>
      <point x="342" y="146" type="line"/>
      <point x="361" y="134" type="line"/>
      <point x="363" y="91" type="line" smooth="yes"/>
      <point x="365" y="38"/>
      <point x="404" y="0"/>
      <point x="453" y="0" type="curve" smooth="yes"/>
      <point x="611" y="0" type="line"/>
      <point x="628" y="118" type="line"/>
      <point x="571" y="118" type="line" smooth="yes"/>
      <point x="558" y="118"/>
      <point x="548" y="128"/>
      <point x="550" y="141" type="curve" smooth="yes"/>
      <point x="601" y="500" type="line"/>
    </contour>
  </outline>
</glyph>
<glyph name="uni0448" format="1">
  <advance width="890"/>
  <unicode hex="0448"/>
  <outline>
    <contour>
      <point x="72" y="500" type="line"/>
      <point x="20" y="130" type="line" smooth="yes"/>
      <point x="7" y="40"/>
      <point x="54" y="-14"/>
      <point x="154" y="-14" type="curve" smooth="yes"/>
      <point x="240" y="-14"/>
      <point x="304" y="27"/>
      <point x="388" y="126" type="curve"/>
      <point x="351" y="211" type="line"/>
      <point x="305" y="173"/>
      <point x="275" y="163"/>
      <point x="256" y="163" type="curve" smooth="yes"/>
      <point x="244" y="163"/>
      <point x="234" y="167"/>
      <point x="237" y="189" type="curve" smooth="yes"/>
      <point x="281" y="500" type="line"/>
    </contour>
    <contour>
      <point x="373" y="500" type="line"/>
      <point x="321" y="130" type="line" smooth="yes"/>
      <point x="308" y="38"/>
      <point x="356" y="-14"/>
      <point x="449" y="-14" type="curve" smooth="yes"/>
      <point x="535" y="-14"/>
      <point x="599" y="28"/>
      <point x="682" y="126" type="curve"/>
      <point x="646" y="211" type="line"/>
      <point x="597" y="173"/>
      <point x="568" y="163"/>
      <point x="546" y="163" type="curve" smooth="yes"/>
      <point x="532" y="163"/>
      <point x="523" y="167"/>
      <point x="527" y="189" type="curve" smooth="yes"/>
      <point x="570" y="500" type="line"/>
    </contour>
    <contour>
      <point x="663" y="500" type="line"/>
      <point x="610" y="114" type="line"/>
      <point x="630" y="102" type="line"/>
      <point x="639" y="0" type="line"/>
      <point x="802" y="0" type="line"/>
      <point x="872" y="500" type="line"/>
    </contour>
  </outline>
</glyph>
<glyph name="uni0449" format="1">
  <advance width="932"/>
  <unicode hex="0449"/>
  <outline>
    <contour>
      <point x="72" y="500" type="line"/>
      <point x="20" y="130" type="line" smooth="yes"/>
      <point x="7" y="40"/>
      <point x="54" y="-14"/>
      <point x="154" y="-14" type="curve" smooth="yes"/>
      <point x="241" y="-14"/>
      <point x="304" y="27"/>
      <point x="388" y="126" type="curve"/>
      <point x="351" y="211" type="line"/>
      <point x="305" y="173"/>
      <point x="275" y="163"/>
      <point x="256" y="163" type="curve" smooth="yes"/>
      <point x="244" y="163"/>
      <point x="234" y="167"/>
      <point x="238" y="189" type="curve" smooth="yes"/>
      <point x="281" y="500" type="line"/>
    </contour>
    <contour>
      <point x="373" y="500" type="line"/>
      <point x="321" y="130" type="line" smooth="yes"/>
      <point x="308" y="38"/>
      <point x="356" y="-14"/>
      <point x="450" y="-14" type="curve" smooth="yes"/>
      <point x="535" y="-14"/>
      <point x="598" y="28"/>
      <point x="682" y="126" type="curve"/>
      <point x="646" y="211" type="line"/>
      <point x="597" y="173"/>
      <point x="568" y="163"/>
      <point x="546" y="163" type="curve" smooth="yes"/>
      <point x="532" y="163"/>
      <point x="524" y="167"/>
      <point x="527" y="189" type="curve" smooth="yes"/>
      <point x="570" y="500" type="line"/>
    </contour>
    <contour>
      <point x="662" y="500" type="line"/>
      <point x="613" y="146" type="line"/>
      <point x="631" y="134" type="line"/>
      <point x="633" y="91" type="line" smooth="yes"/>
      <point x="635" y="38"/>
      <point x="673" y="0"/>
      <point x="721" y="0" type="curve" smooth="yes"/>
      <point x="880" y="0" type="line"/>
      <point x="897" y="118" type="line"/>
      <point x="841" y="118" type="line" smooth="yes"/>
      <point x="828" y="118"/>
      <point x="819" y="128"/>
      <point x="821" y="141" type="curve" smooth="yes"/>
      <point x="871" y="500" type="line"/>
    </contour>
    <contour>
      <point x="687" y="-149" type="line"/>
      <point x="859" y="-149" type="line"/>
      <point x="880" y="0" type="line"/>
      <point x="737" y="5" type="line"/>
    </contour>
  </outline>
</glyph>
<glyph name="uni0452" format="1">
  <advance width="632"/>
  <unicode hex="0452"/>
  <outline>
    <contour>
      <point x="125" y="700" type="line"/>
      <point x="27" y="0" type="line"/>
      <point x="238" y="0" type="line"/>
      <point x="276" y="289" type="line"/>
      <point x="258" y="297" type="line"/>
      <point x="274" y="330"/>
      <point x="292" y="390"/>
      <point x="300" y="450" type="curve" smooth="yes"/>
      <point x="336" y="700" type="line"/>
    </contour>
    <contour>
      <point x="43" y="557" type="line"/>
      <point x="31" y="467" type="line"/>
      <point x="471" y="467" type="line"/>
      <point x="484" y="557" type="line"/>
    </contour>
    <contour>
      <point x="397" y="424"/>
      <point x="314" y="387"/>
      <point x="234" y="302" type="curve"/>
      <point x="256" y="206" type="line"/>
      <point x="301" y="239"/>
      <point x="326" y="247"/>
      <point x="354" y="247" type="curve" smooth="yes"/>
      <point x="380" y="247"/>
      <point x="387" y="239"/>
      <point x="384" y="215" type="curve" smooth="yes"/>
      <point x="352" y="0" type="line"/>
      <point x="563" y="0" type="line"/>
      <point x="602" y="280" type="line" smooth="yes"/>
      <point x="615" y="372"/>
      <point x="566" y="424"/>
      <point x="462" y="424" type="curve" smooth="yes"/>
    </contour>
  </outline>
</glyph>
<glyph name="uni045F" format="1">
  <advance width="618"/>
  <unicode hex="045F"/>
  <outline>
    <contour>
      <point x="213" y="-39" type="line"/>
      <point x="169" y="-251" type="line"/>
      <point x="327" y="-251" type="line"/>
      <point x="344" y="-39" type="line"/>
    </contour>
    <component base="u" xOffset="2"/>
  </outline>
</glyph>
<glyph name="emdash" format="1">
  <advance width="822"/>
  <unicode hex="2014"/>
  <outline>
    <contour>
      <point x="50" y="318" type="line"/>
      <point x="32" y="196" type="line"/>
      <point x="763" y="196" type="line"/>
      <point x="781" y="318" type="line"/>
    </contour>
  </outline>
</glyph>
<glyph name="dagger" format="1">
  <advance width="487"/>
  <unicode hex="2020"/>
  <outline>
    <contour>
      <point x="181" y="500" type="line"/>
      <point x="52" y="500" type="line"/>
      <point x="32" y="357" type="line"/>
      <point x="164" y="379" type="line"/>
    </contour>
    <contour>
      <point x="348" y="379" type="line"/>
      <point x="474" y="357" type="line"/>
      <point x="494" y="500" type="line"/>
      <point x="365" y="500" type="line"/>
    </contour>
    <contour>
      <point x="342" y="484" type="line"/>
      <point x="382" y="691" type="line"/>
      <point x="218" y="691" type="line"/>
      <point x="200" y="484" type="line"/>
      <point x="186" y="393" type="line"/>
      <point x="105" y="-110" type="line"/>
      <point x="269" y="-110" type="line"/>
      <point x="330" y="393" type="line"/>
    </contour>
  </outline>
</glyph>
<glyph name="daggerdbl" format="1">
  <advance width="514"/>
  <unicode hex="2021"/>
  <outline>
    <contour>
      <point x="228" y="691" type="line"/>
      <point x="211" y="500" type="line"/>
      <point x="155" y="97" type="line"/>
      <point x="115" y="-110" type="line"/>
      <point x="279" y="-110" type="line"/>
      <point x="297" y="97" type="line"/>
      <point x="355" y="500" type="line"/>
      <point x="392" y="691" type="line"/>
    </contour>
    <contour>
      <point x="3" y="81" type="line"/>
      <point x="132" y="81" type="line"/>
      <point x="149" y="202" type="line"/>
      <point x="23" y="224" type="line"/>
    </contour>
    <contour>
      <point x="333" y="202" type="line"/>
      <point x="316" y="81" type="line"/>
      <point x="445" y="81" type="line"/>
      <point x="465" y="224" type="line"/>
    </contour>
    <contour>
      <point x="62" y="500" type="line"/>
      <point x="42" y="357" type="line"/>
      <point x="174" y="379" type="line"/>
      <point x="191" y="500" type="line"/>
    </contour>
    <contour>
      <point x="375" y="500" type="line"/>
      <point x="358" y="379" type="line"/>
      <point x="484" y="357" type="line"/>
      <point x="504" y="500" type="line"/>
    </contour>
  </outline>
</glyph>
<glyph name="foursuperior" format="1">
  <advance width="428"/>
  <unicode hex="2074"/>
  <outline>
    <contour>
      <point x="186" y="774" type="line"/>
      <point x="51" y="516" type="line" smooth="yes"/>
      <point x="33" y="483"/>
      <point x="48" y="437"/>
      <point x="98" y="437" type="curve" smooth="yes"/>
      <point x="410" y="437" type="line"/>
      <point x="447" y="450" type="line"/>
      <point x="458" y="536" type="line"/>
      <point x="226" y="536" type="line" smooth="yes"/>
      <point x="218" y="536"/>
      <point x="213" y="539"/>
      <point x="218" y="550" type="curve" smooth="yes"/>
      <point x="329" y="774" type="line"/>
    </contour>
    <contour>
      <point x="327" y="691" type="line"/>
      <point x="294" y="620" type="line"/>
      <point x="258" y="360" type="line"/>
      <point x="397" y="360" type="line"/>
      <point x="444" y="691" type="line"/>
    </contour>
  </outline>
</glyph>
<glyph name="product" format="1">
  <advance width="708"/>
  <unicode hex="220F"/>
  <outline>
    <contour>
      <point x="460" y="690" type="line"/>
      <point x="350" y="-90" type="line"/>
      <point x="560" y="-90" type="line"/>
      <point x="670" y="690" type="line"/>
    </contour>
    <contour>
      <point x="151" y="690" type="line"/>
      <point x="41" y="-90" type="line"/>
      <point x="251" y="-90" type="line"/>
      <point x="361" y="690" type="line"/>
    </contour>
    <contour>
      <point x="81" y="690" type="line"/>
      <point x="60" y="544" type="line"/>
      <point x="719" y="544" type="line"/>
      <point x="740" y="690" type="line"/>
    </contour>
  </outline>
</glyph>
<glyph name="infinity" format="1">
  <advance width="755"/>
  <unicode hex="221E"/>
  <outline>
    <contour>
      <point x="480" y="458"/>
      <point x="443" y="419"/>
      <point x="342" y="342" type="curve" smooth="yes"/>
      <point x="297" y="308"/>
      <point x="271" y="274"/>
      <point x="212" y="268" type="curve" smooth="yes"/>
      <point x="191" y="266"/>
      <point x="171" y="278"/>
      <point x="174" y="305" type="curve" smooth="yes"/>
      <point x="176" y="325"/>
      <point x="197" y="335"/>
      <point x="230" y="335" type="curve" smooth="yes"/>
      <point x="293" y="335"/>
      <point x="306" y="306"/>
      <point x="335" y="269" type="curve" smooth="yes"/>
      <point x="377" y="210"/>
      <point x="447" y="146"/>
      <point x="546" y="146" type="curve" smooth="yes"/>
      <point x="635" y="146"/>
      <point x="714" y="197"/>
      <point x="728" y="299" type="curve" smooth="yes"/>
      <point x="743" y="407"/>
      <point x="668" y="458"/>
      <point x="585" y="458" type="curve" smooth="yes"/>
    </contour>
    <contour>
      <point x="118" y="458"/>
      <point x="43" y="414"/>
      <point x="30" y="315" type="curve" smooth="yes"/>
      <point x="15" y="205"/>
      <point x="92" y="146"/>
      <point x="181" y="146" type="curve" smooth="yes"/>
      <point x="273" y="146"/>
      <point x="322" y="188"/>
      <point x="422" y="261" type="curve" smooth="yes"/>
      <point x="471" y="297"/>
      <point x="506" y="335"/>
      <point x="550" y="335" type="curve" smooth="yes"/>
      <point x="567" y="335"/>
      <point x="585" y="327"/>
      <point x="582" y="300" type="curve" smooth="yes"/>
      <point x="577" y="277"/>
      <point x="553" y="268"/>
      <point x="520" y="268" type="curve" smooth="yes"/>
      <point x="451" y="268"/>
      <point x="431" y="322"/>
      <point x="417" y="338" type="curve" smooth="yes"/>
      <point x="365" y="399"/>
      <point x="307" y="458"/>
      <point x="206" y="458" type="curve" smooth="yes"/>
    </contour>
  </outline>
</glyph>
<glyph name="notequal" format="1">
  <advance width="608"/>
  <unicode hex="2260"/>
  <outline>
    <contour>
      <point x="189" y="206" type="line"/>
      <point x="112" y="37" type="line"/>
      <point x="220" y="-10" type="line"/>
      <point x="299" y="162" type="line"/>
    </contour>
    <contour>
      <point x="404" y="392" type="line"/>
      <point x="485" y="564" type="line"/>
      <point x="375" y="614" type="line"/>
      <point x="295" y="436" type="line"/>
    </contour>
    <component base="equal" xOffset="18"/>
  </outline>
</glyph>
<glyph name="fi" format="1">
  <advance width="722"/>
  <unicode hex="FB01"/>
  <outline>
    <contour>
      <point x="195" y="724"/>
      <point x="146" y="659"/>
      <point x="132" y="565" type="curve" smooth="yes"/>
      <point x="48" y="5" type="line" smooth="yes"/>
      <point x="42" y="-37"/>
      <point x="27" y="-51"/>
      <point x="-13" y="-51" type="curve" smooth="yes"/>
      <point x="-62" y="-51" type="line"/>
      <point x="-94" y="-176" type="line"/>
      <point x="-25" y="-186"/>
      <point x="21" y="-191"/>
      <point x="60" y="-191" type="curve" smooth="yes"/>
      <point x="186" y="-191"/>
      <point x="236" y="-126"/>
      <point x="250" y="-32" type="curve" smooth="yes"/>
      <point x="334" y="528" type="line" smooth="yes"/>
      <point x="340" y="570"/>
      <point x="355" y="584"/>
      <point x="395" y="584" type="curve" smooth="yes"/>
      <point x="454" y="584" type="line"/>
      <point x="485" y="709" type="line"/>
      <point x="442" y="719"/>
      <point x="363" y="724"/>
      <point x="322" y="724" type="curve" smooth="yes"/>
    </contour>
    <contour>
      <point x="123" y="500" type="line"/>
      <point x="38" y="495" type="line"/>
      <point x="22" y="374" type="line"/>
      <point x="476" y="374" type="line"/>
      <point x="494" y="500" type="line"/>
    </contour>
    <contour>
      <point x="493" y="500" type="line"/>
      <point x="424" y="0" type="line"/>
      <point x="634" y="0" type="line"/>
      <point x="704" y="500" type="line"/>
    </contour>
    <contour>
      <point x="584" y="739" type="line" smooth="yes"/>
      <point x="542" y="739"/>
      <point x="525" y="723"/>
      <point x="520" y="681" type="curve" smooth="yes"/>
      <point x="512" y="630" type="line" smooth="yes"/>
      <point x="507" y="588"/>
      <point x="529" y="564"/>
      <point x="571" y="564" type="curve" smooth="yes"/>
      <point x="659" y="564" type="line" smooth="yes"/>
      <point x="700" y="564"/>
      <point x="716" y="580"/>
      <point x="722" y="622" type="curve" smooth="yes"/>
      <point x="729" y="673" type="line" smooth="yes"/>
      <point x="735" y="715"/>
      <point x="713" y="739"/>
      <point x="671" y="739" type="curve" smooth="yes"/>
    </contour>
  </outline>
</glyph>
<glyph name="fl" format="1">
  <advance width="758"/>
  <unicode hex="FB02"/>
  <outline>
    <contour>
      <point x="192" y="724"/>
      <point x="142" y="659"/>
      <point x="129" y="565" type="curve" smooth="yes"/>
      <point x="51" y="5" type="line" smooth="yes"/>
      <point x="45" y="-37"/>
      <point x="30" y="-51"/>
      <point x="-10" y="-51" type="curve" smooth="yes"/>
      <point x="-59" y="-51" type="line"/>
      <point x="-90" y="-176" type="line"/>
      <point x="-21" y="-186"/>
      <point x="25" y="-191"/>
      <point x="64" y="-191" type="curve" smooth="yes"/>
      <point x="189" y="-191"/>
      <point x="240" y="-126"/>
      <point x="253" y="-32" type="curve" smooth="yes"/>
      <point x="331" y="528" type="line" smooth="yes"/>
      <point x="337" y="570"/>
      <point x="356" y="587"/>
      <point x="392" y="587" type="curve" smooth="yes"/>
      <point x="511" y="587" type="line"/>
      <point x="446" y="130" type="line" smooth="yes"/>
      <point x="434" y="42"/>
      <point x="492" y="-14"/>
      <point x="597" y="-14" type="curve" smooth="yes"/>
      <point x="628" y="-14"/>
      <point x="703" y="-8"/>
      <point x="734" y="10" type="curve"/>
      <point x="724" y="146" type="line"/>
      <point x="692" y="146" type="line" smooth="yes"/>
      <point x="664" y="146"/>
      <point x="659" y="152"/>
      <point x="663" y="178" type="curve" smooth="yes"/>
      <point x="731" y="699" type="line"/>
      <point x="598" y="725"/>
      <point x="367" y="724"/>
      <point x="319" y="724" type="curve" smooth="yes"/>
    </contour>
    <contour>
      <point x="120" y="500" type="line"/>
      <point x="35" y="495" type="line"/>
      <point x="20" y="374" type="line"/>
      <point x="419" y="374" type="line"/>
      <point x="437" y="500" type="line"/>
    </contour>
  </outline>
</glyph>
<glyph name="breve-cy" format="1">
  <advance width="410"/>
  <outline>
    <contour>
      <point x="322" y="646"/>
      <point x="292" y="630"/>
      <point x="257" y="630" type="curve" smooth="yes"/>
      <point x="228" y="630"/>
      <point x="199" y="639"/>
      <point x="218" y="706" type="curve"/>
      <point x="89" y="706" type="line"/>
      <point x="60" y="613"/>
      <point x="127" y="534"/>
      <point x="256" y="534" type="curve" smooth="yes"/>
      <point x="373" y="534"/>
      <point x="448" y="613"/>
      <point x="445" y="706" type="curve"/>
      <point x="322" y="706" type="line"/>
    </contour>
    <contour>
      <point x="244" y="532" type="move" name="_top"/>
    </contour>
  </outline>
</glyph>
